<svg width="30" height="30" viewBox="0 0 30 30" fill="#000000" xmlns="http://www.w3.org/2000/svg">
<g clip-path="url(#clip0_5_3176)">
<path d="M25.6055 0H4.39453C1.97139 0 0 1.97139 0 4.39453V25.6055C0 28.0286 1.97139 30 4.39453 30H25.6055C28.0286 30 30 28.0286 30 25.6055V4.39453C30 1.97139 28.0286 0 25.6055 0ZM17.6367 18.457V28.2422H15.8789V18.457C15.8789 17.9716 15.4854 17.5781 15 17.5781H12.3633V15.8203H15C15.4854 15.8203 15.8789 15.4268 15.8789 14.9414V11.4258C15.8789 9.00264 17.8503 7.03125 20.2734 7.03125H22.9102V8.78906H20.2734C18.8196 8.78906 17.6367 9.97189 17.6367 11.4258V14.9414C17.6367 15.4268 18.0302 15.8203 18.5156 15.8203H22.6634L22.2239 17.5781H18.5156C18.0302 17.5781 17.6367 17.9716 17.6367 18.457ZM28.2422 25.6055C28.2422 27.0594 27.0594 28.2422 25.6055 28.2422H19.3945V19.3359H22.9102C23.3135 19.3359 23.665 19.0614 23.7628 18.6702L24.6417 15.1546C24.7805 14.5998 24.3598 14.0625 23.7891 14.0625H19.3945V11.4258C19.3945 10.9412 19.7888 10.5469 20.2734 10.5469H23.7891C24.2745 10.5469 24.668 10.1534 24.668 9.66797V6.15234C24.668 5.66695 24.2745 5.27344 23.7891 5.27344H20.2734C16.881 5.27344 14.1211 8.03338 14.1211 11.4258V14.0625H11.4844C10.999 14.0625 10.6055 14.456 10.6055 14.9414V18.457C10.6055 18.9424 10.999 19.3301 11.4844 19.3301H14.1211V28.2422H4.39453C2.94064 28.2422 1.75781 27.0594 1.75781 25.6055V4.39453C1.75781 2.94064 2.94064 1.75781 4.39453 1.75781H25.6055C27.0594 1.75781 28.2422 2.94064 28.2422 4.39453V25.6055Z" fill="black"/>
</g>
<defs>
<clipPath id="clip0_5_3176">
<rect width="30" height="30" fill="white"/>
</clipPath>
</defs>
</svg>
