<svg width="71" height="25" viewBox="0 0 71 25" fill="white" xmlns="http://www.w3.org/2000/svg">
<g clip-path="url(#clip0_5_4370)">
<path d="M2.64614 21.9282C2.88792 21.9282 3.10067 21.9735 3.28442 22.0641C3.46817 22.1547 3.61129 22.282 3.7138 22.4458C3.81632 22.6078 3.86757 22.7967 3.86757 23.0126C3.86757 23.2266 3.81632 23.4156 3.7138 23.5794C3.61129 23.7414 3.46817 23.8686 3.28442 23.9611C3.10067 24.0518 2.88792 24.0971 2.64614 24.0971H1.71484V21.9282H2.64614ZM1.98756 24.0248L1.81349 23.857H2.65775C2.84343 23.857 3.0059 23.8214 3.14516 23.75C3.28442 23.6787 3.39273 23.5794 3.4701 23.4522C3.5494 23.3249 3.58905 23.1784 3.58905 23.0126C3.58905 22.843 3.5494 22.6955 3.4701 22.5702C3.39273 22.443 3.28442 22.3437 3.14516 22.2723C3.0059 22.201 2.84343 22.1653 2.65775 22.1653H1.81349L1.98756 22.0005V24.0248ZM10.0791 22.897V23.1283H8.59661V22.897H10.0791ZM8.76778 23.0126L8.60241 24.0305L8.45735 23.8599H10.1575V24.0971H8.32389L8.50377 23.0126L8.32389 21.9282H10.143V22.1653H8.45735L8.60241 21.9947L8.76778 23.0126ZM15.7293 23.9901H15.5872L16.5765 21.9282H16.8724L15.8019 24.0971H15.5059L14.4354 21.9282H14.7313L15.7293 23.9901ZM22.9949 22.897V23.1283H21.5124V22.897H22.9949ZM21.6836 23.0126L21.5182 24.0305L21.3731 23.8599H23.0733V24.0971H21.2397L21.4196 23.0126L21.2397 21.9282H23.0588V22.1653H21.3731L21.5182 21.9947L21.6836 23.0126ZM27.9183 21.9282V23.9756L27.7964 23.857H29.4414V24.0971H27.6456V21.9282H27.9183ZM34.8347 24.1346C34.5929 24.1346 34.3792 24.0874 34.1935 23.993C34.0098 23.8985 33.8666 23.7674 33.7641 23.5997C33.6616 23.43 33.6104 23.2343 33.6104 23.0126C33.6104 22.789 33.6616 22.5933 33.7641 22.4256C33.8666 22.2579 34.0098 22.1268 34.1935 22.0323C34.3792 21.9379 34.5929 21.8906 34.8347 21.8906C35.0765 21.8906 35.2892 21.9379 35.473 22.0323C35.6567 22.1268 35.7998 22.2579 35.9024 22.4256C36.0049 22.5933 36.0561 22.789 36.0561 23.0126C36.0561 23.2343 36.0049 23.43 35.9024 23.5997C35.7998 23.7674 35.6567 23.8985 35.473 23.993C35.2892 24.0874 35.0765 24.1346 34.8347 24.1346ZM34.8347 23.8888C35.0262 23.8888 35.1925 23.8532 35.3337 23.7818C35.4749 23.7086 35.5842 23.6064 35.6615 23.4753C35.7389 23.3442 35.7776 23.19 35.7776 23.0126C35.7776 22.8333 35.7389 22.6782 35.6615 22.5471C35.5842 22.416 35.4749 22.3148 35.3337 22.2434C35.1925 22.1721 35.0262 22.1364 34.8347 22.1364C34.6432 22.1364 34.4769 22.1721 34.3357 22.2434C34.1945 22.3148 34.0842 22.416 34.0049 22.5471C33.9276 22.6782 33.8889 22.8333 33.8889 23.0126C33.8889 23.19 33.9276 23.3442 34.0049 23.4753C34.0842 23.6064 34.1945 23.7086 34.3357 23.7818C34.4769 23.8532 34.6432 23.8888 34.8347 23.8888ZM41.7235 21.9282C41.8763 21.9282 42.0088 21.9552 42.121 22.0092C42.2332 22.0632 42.3202 22.1393 42.3821 22.2376C42.444 22.334 42.475 22.4458 42.475 22.5731C42.475 22.7003 42.444 22.8131 42.3821 22.9114C42.3202 23.0078 42.2332 23.084 42.121 23.1399C42.0088 23.1939 41.8763 23.2208 41.7235 23.2208H40.7313V22.9837H41.7177C41.8647 22.9837 41.9808 22.9471 42.0659 22.8738C42.1529 22.7986 42.1965 22.6984 42.1965 22.5731C42.1965 22.4478 42.1529 22.3485 42.0659 22.2752C41.9808 22.202 41.8647 22.1653 41.7177 22.1653H40.7603L40.8822 22.0323V24.0971H40.6095V21.9282H41.7235ZM49.7594 21.9282V24.0971H49.4982V21.9918L49.6056 21.9947L48.506 24.0971H48.2159L47.1163 21.9976L47.2237 21.9947V24.0971H46.9626V21.9282H47.3745L48.448 24.0045H48.2768L49.3474 21.9282H49.7594ZM56.1145 22.897V23.1283H54.6319V22.897H56.1145ZM54.8031 23.0126L54.6377 24.0305L54.4927 23.8599H56.1928V24.0971H54.3592L54.5391 23.0126L54.3592 21.9282H56.1783V22.1653H54.4927L54.6377 21.9947L54.8031 23.0126ZM62.7727 23.9611L62.6393 23.9698V21.9282H62.9033V24.0971H62.5523L60.8956 22.0555L61.0291 22.0468V24.0971H60.7651V21.9282H61.119L62.7727 23.9611ZM68.2908 22.0583H68.5636V24.0971H68.2908V22.0583ZM67.3566 21.9282H69.4978V22.1682H67.3566V21.9282Z" fill="white"/>
<path d="M2.46511 3.9375V15.585L2.06216 15.1833H11.2333V15.9866H1.5625V3.9375H2.46511Z" fill="white"/>
<path fill-rule="evenodd" clip-rule="evenodd" d="M25.828 15.9866H26.8757L20.7509 3.9375L20.3076 4.94159L23.8206 11.9702H16.7718L18.7764 7.99403L17.8496 7.87354L13.6992 15.9866H14.7469L16.3668 12.7735H24.2221L25.828 15.9866Z" fill="white"/>
<path d="M29.6641 15.9866V15.1833L39.6895 4.16242L39.9313 4.74077H29.7447V3.9375H40.3181V4.74077L30.3088 15.7617L30.0509 15.1833H40.3664V15.9866H29.6641Z" fill="white"/>
<path fill-rule="evenodd" clip-rule="evenodd" d="M55.3671 15.9866H56.4148L50.2899 3.9375L49.8467 4.94159L53.3597 11.9702H46.3109L48.3155 7.99403L47.3887 7.87354L43.2383 15.9866H44.286L45.9059 12.7735H53.7612L55.3671 15.9866Z" fill="white"/>
<path d="M60.863 9.88172H66.3109C67.2028 9.88172 67.9173 9.65142 68.4546 9.19091C68.9919 8.71963 69.2605 8.09307 69.2605 7.31125C69.2605 6.5294 68.9919 5.90819 68.4546 5.44765C67.9173 4.9764 67.2028 4.74077 66.3109 4.74077H60.734L61.137 4.33914V15.9866H60.2344V3.9375H66.2303C67.0147 3.9375 67.697 4.08209 68.2773 4.37127C68.8682 4.64974 69.3304 5.04602 69.6634 5.56011C69.9965 6.0635 70.1631 6.64721 70.1631 7.31125C70.1631 7.97529 69.9965 8.56435 69.6634 9.07845C69.3304 9.58186 68.8682 9.97811 68.2773 10.2673C67.697 10.5458 67.0147 10.685 66.2303 10.685H60.863V9.88172ZM63.8287 10.3476H65.0537L70.3565 15.9866H69.1315L63.8287 10.3476Z" fill="white"/>
</g>
<defs>
<clipPath id="clip0_5_4370">
<rect width="71" height="24.8211" fill="white"/>
</clipPath>
</defs>
</svg>
