<svg width="157" height="55" viewBox="0 0 157 55" fill="black" xmlns="http://www.w3.org/2000/svg">
<path d="M5.85232 48.4933C6.38694 48.4933 6.85741 48.5935 7.26372 48.7938C7.67003 48.9942 7.98653 49.2755 8.21321 49.6379C8.43988 49.996 8.55322 50.4138 8.55322 50.8912C8.55322 51.3644 8.43988 51.7822 8.21321 52.1445C7.98653 52.5026 7.67003 52.784 7.26372 52.9886C6.85741 53.189 6.38694 53.2892 5.85232 53.2892H3.79297V48.4933H5.85232ZM4.39602 53.1293L4.01109 52.7584H5.87799C6.28857 52.7584 6.64784 52.6796 6.95578 52.5218C7.26372 52.3641 7.50323 52.1445 7.67431 51.8632C7.84966 51.5818 7.93734 51.2578 7.93734 50.8912C7.93734 50.5161 7.84966 50.19 7.67431 49.9129C7.50323 49.6315 7.26372 49.412 6.95578 49.2542C6.64784 49.0965 6.28857 49.0176 5.87799 49.0176H4.01109L4.39602 48.6531V53.1293ZM22.2887 50.6354V51.147H19.0104V50.6354H22.2887ZM19.3889 50.8912L19.0232 53.1421L18.7024 52.7648H22.4619V53.2892H18.4073L18.8051 50.8912L18.4073 48.4933H22.4298V49.0176H18.7024L19.0232 48.6404L19.3889 50.8912ZM34.7827 53.0526H34.4684L36.656 48.4933H37.3104L34.9431 53.2892H34.2887L31.9214 48.4933H32.5758L34.7827 53.0526ZM50.849 50.6354V51.147H47.5707V50.6354H50.849ZM47.9492 50.8912L47.5835 53.1421L47.2627 52.7648H51.0222V53.2892H46.9676L47.3654 50.8912L46.9676 48.4933H50.9901V49.0176H47.2627L47.5835 48.6404L47.9492 50.8912ZM61.7358 48.4933V53.0206L61.4663 52.7584H65.1039V53.2892H61.1327V48.4933H61.7358ZM77.0298 53.3723C76.4952 53.3723 76.0226 53.2678 75.612 53.059C75.2057 52.8501 74.8892 52.5602 74.6625 52.1893C74.4358 51.8142 74.3225 51.3815 74.3225 50.8912C74.3225 50.3967 74.4358 49.964 74.6625 49.5931C74.8892 49.2223 75.2057 48.9324 75.612 48.7235C76.0226 48.5146 76.4952 48.4102 77.0298 48.4102C77.5644 48.4102 78.0349 48.5146 78.4412 48.7235C78.8475 48.9324 79.164 49.2223 79.3907 49.5931C79.6174 49.964 79.7307 50.3967 79.7307 50.8912C79.7307 51.3815 79.6174 51.8142 79.3907 52.1893C79.164 52.5602 78.8475 52.8501 78.4412 53.059C78.0349 53.2678 77.5644 53.3723 77.0298 53.3723ZM77.0298 52.8288C77.4532 52.8288 77.821 52.7499 78.1333 52.5922C78.4455 52.4302 78.6871 52.2042 78.8582 51.9143C79.0293 51.6245 79.1148 51.2834 79.1148 50.8912C79.1148 50.4948 79.0293 50.1516 78.8582 49.8617C78.6871 49.5718 78.4455 49.348 78.1333 49.1903C77.821 49.0326 77.4532 48.9537 77.0298 48.9537C76.6064 48.9537 76.2386 49.0326 75.9264 49.1903C75.6141 49.348 75.3704 49.5718 75.195 49.8617C75.0239 50.1516 74.9384 50.4948 74.9384 50.8912C74.9384 51.2834 75.0239 51.6245 75.195 51.9143C75.3704 52.2042 75.6141 52.4302 75.9264 52.5922C76.2386 52.7499 76.6064 52.8288 77.0298 52.8288ZM92.2629 48.4933C92.6008 48.4933 92.8938 48.553 93.1418 48.6723C93.3899 48.7917 93.5824 48.9601 93.7192 49.1775C93.8561 49.3906 93.9245 49.6379 93.9245 49.9193C93.9245 50.2006 93.8561 50.45 93.7192 50.6674C93.5824 50.8806 93.3899 51.049 93.1418 51.1726C92.8938 51.2919 92.6008 51.3516 92.2629 51.3516H90.0688V50.8273H92.2501C92.5751 50.8273 92.8317 50.7463 93.0199 50.5843C93.2124 50.418 93.3086 50.1964 93.3086 49.9193C93.3086 49.6422 93.2124 49.4226 93.0199 49.2606C92.8317 49.0986 92.5751 49.0176 92.2501 49.0176H90.133L90.4024 48.7235V53.2892H89.7994V48.4933H92.2629ZM110.032 48.4933V53.2892H109.455V48.634L109.692 48.6404L107.261 53.2892H106.619L104.188 48.6468L104.425 48.6404V53.2892H103.848V48.4933H104.759L107.132 53.0845H106.754L109.121 48.4933H110.032ZM124.085 50.6354V51.147H120.807V50.6354H124.085ZM121.185 50.8912L120.82 53.1421L120.499 52.7648H124.258V53.2892H120.204L120.601 50.8912L120.204 48.4933H124.226V49.0176H120.499L120.82 48.6404L121.185 50.8912ZM138.808 52.9886L138.513 53.0078V48.4933H139.097V53.2892H138.321L134.658 48.7746L134.953 48.7555V53.2892H134.369V48.4933H135.152L138.808 52.9886ZM151.01 48.781H151.613V53.2892H151.01V48.781ZM148.945 48.4933H153.679V49.024H148.945V48.4933Z" fill="black"/>
<path d="M5.45295 8.70312V34.4588L4.56191 33.5707H24.8418V35.3469H3.45703V8.70312H5.45295Z" fill="black"/>
<path fill-rule="evenodd" clip-rule="evenodd" d="M57.117 35.3469H59.4337L45.89 8.70312L44.9098 10.9234L52.678 26.4656H37.0912L41.5239 17.6732L39.4745 17.4068L30.2969 35.3469H32.6136L36.1957 28.2419H53.5658L57.117 35.3469Z" fill="black"/>
<path d="M65.5977 35.3469V33.5707L87.7666 9.20048L88.3012 10.4794H65.7759V8.70312H89.1566V10.4794L67.0233 34.8496L66.453 33.5707H89.2635V35.3469H65.5977Z" fill="black"/>
<path fill-rule="evenodd" clip-rule="evenodd" d="M122.429 35.3469H124.746L111.202 8.70312L110.222 10.9234L117.991 26.4656H102.404L106.836 17.6732L104.787 17.4068L95.6094 35.3469H97.9261L101.508 28.2419H118.878L122.429 35.3469Z" fill="black"/>
<path d="M134.581 21.8474H146.628C148.6 21.8474 150.18 21.3381 151.368 20.3198C152.557 19.2777 153.151 17.8922 153.151 16.1634C153.151 14.4345 152.557 13.0609 151.368 12.0425C150.18 11.0004 148.6 10.4794 146.628 10.4794H134.296L135.187 9.59125V35.3469H133.191V8.70312H146.45C148.184 8.70312 149.693 9.02285 150.976 9.6623C152.283 10.2781 153.305 11.1544 154.042 12.2912C154.778 13.4043 155.146 14.695 155.146 16.1634C155.146 17.6318 154.778 18.9343 154.042 20.0711C153.305 21.1843 152.283 22.0605 150.976 22.7C149.693 23.3158 148.184 23.6236 146.45 23.6236H134.581V21.8474ZM141.139 22.8776H143.848L155.574 35.3469H152.865L141.139 22.8776Z" fill="black"/>
</svg>
